<?xml version="1.0" standalone="no"?>
<!DOCTYPE svg PUBLIC "-//W3C//DTD SVG 20010904//EN"
 "http://www.w3.org/TR/2001/REC-SVG-20010904/DTD/svg10.dtd">
<svg version="1.0" xmlns="http://www.w3.org/2000/svg"
 width="551.000000pt" height="551.000000pt" viewBox="0 0 551.000000 551.000000"
 preserveAspectRatio="xMidYMid meet">
<metadata>
Created by potrace 1.11, written by Peter Selinger 2001-2013
</metadata>
<g transform="translate(0.000000,551.000000) scale(0.100000,-0.100000)"
fill="#000000" stroke="none">
<path d="M2569 4926 c-2 -2 -40 -7 -84 -10 -65 -5 -198 -29 -340 -61 -160 -37
-443 -154 -630 -263 -82 -48 -253 -167 -275 -192 -3 -3 -21 -18 -40 -34 -120
-98 -263 -255 -341 -373 l-49 -76 0 492 0 491 -404 0 -404 0 0 -2160 1 -2160
403 0 404 0 1 1548 c0 851 2 1558 5 1572 8 48 37 125 64 176 26 49 79 134 90
144 3 3 27 32 55 65 284 343 763 623 1245 729 63 14 135 27 160 30 183 21 309
25 481 13 338 -24 599 -141 734 -332 88 -124 127 -234 151 -430 4 -27 7 -716
9 -1530 2 -1655 -4 -1521 74 -1643 85 -131 215 -220 401 -275 104 -31 122 -35
191 -43 30 -3 77 -10 104 -14 55 -9 910 -14 924 -6 4 3 6 19 3 36 l-4 30 -207
0 c-140 0 -228 5 -273 15 -156 33 -282 124 -343 248 -20 40 -38 83 -40 97 -3
14 -9 46 -13 72 -5 26 -9 689 -9 1475 0 785 -4 1455 -7 1488 -52 446 -363 699
-1006 820 -14 3 -36 7 -50 9 -31 6 -116 18 -150 21 -98 8 -188 18 -205 22 -27
6 -620 15 -626 9z"/>
</g>
</svg>
